<?xml version="1.0" encoding="UTF-8"?>
<svg id="Layer_1" xmlns="http://www.w3.org/2000/svg" version="1.1" viewBox="0 0 512 512">
  <!-- Generator: Adobe Illustrator 29.7.0, SVG Export Plug-In . SVG Version: 2.1.1 Build 138)  -->
  <defs>
    <style>
      .st0 {
        fill: #c8cbd0;
      }
    </style>
  </defs>
  <path class="st0" d="M512,219v26l-5.48,32.01c-31.64,119.86-164.48,183.09-281.68,169.18-23.27,13.55-47.89,24.75-71.73,37.28-6.04,3.18-18.72,12.46-24.47,12.6-7.93.19-14.54-5.16-16.25-12.82l-.72-73.27c-50.75-29.37-91.61-76.09-106.18-133.78L.19,246c.44-8.85-.6-18.22,0-27C7.13,116.81,98.11,42.52,193.08,22.47c137.45-29.02,302.48,43.14,317.99,194.95l.93,1.59ZM144.14,452c18.03-9.48,35.22-21.91,53.31-31.17,11.02-5.65,21.62-5.77,34.11-5.88,49.7-.44,81.13.26,128.18-19.78,126.86-54.02,167.1-201.08,53.78-294.15-67.53-55.47-168.64-66.58-249.63-36.77C14.77,119.13-19.03,289.65,121.85,378.79c5.77,3.65,22.28,10.09,22.28,17.71v55.5Z"/>
  <path class="st0" d="M147.87,208.25c32.78-5.2,38.26,43.83,7.68,47.67-31.61,3.97-37.22-42.98-7.68-47.67Z"/>
  <path class="st0" d="M259.83,208.25c32.78-5.2,38.26,43.83,7.68,47.67-31.61,3.97-37.22-42.98-7.68-47.67Z"/>
  <path class="st0" d="M371.79,208.25c32.78-5.2,38.26,43.83,7.68,47.67-31.61,3.97-37.22-42.98-7.68-47.67Z"/>
</svg>